<svg viewBox="0 0 749.76 749.76"><rect width="749.76" height="749.76" fill="#ffffff" id="bg" class="bg"></rect><g><g transform="translate(0.00,
                                0.00) rotate(0, 37.488, 37.488)"><svg id="Layer_1" data-name="Layer 1" xmlns="http://www.w3.org/2000/svg" viewBox="0 0 100 100" width="74.976" height="74.976"><path d="M50,100a50,50,0,1,1,50-50v50Z" fill="#DDDFFF"></path></svg></g><g transform="translate(74.98,
                                0.00) rotate(90, 37.488, 37.488)"><svg id="Layer_1" data-name="Layer 1" xmlns="http://www.w3.org/2000/svg" viewBox="0 0 100 100" width="74.976" height="74.976"><path d="M50,100a50,50,0,1,1,50-50v50Z" fill="#FDDEB3"></path></svg></g><g transform="translate(74.98,
                                74.98) rotate(270, 37.488, 37.488)"><svg id="Layer_1" data-name="Layer 1" xmlns="http://www.w3.org/2000/svg" viewBox="0 0 100 100" width="74.976" height="74.976"><path d="M50,100a50,50,0,1,1,50-50v50Z" fill="#FDDEB3"></path></svg></g><g transform="translate(224.93,
                                0.00) rotate(270, 37.488, 37.488)"><svg id="Layer_1" data-name="Layer 1" xmlns="http://www.w3.org/2000/svg" viewBox="0 0 100 100" width="74.976" height="74.976"><path d="M50,100h0A50,50,0,0,1,0,50V0H100V50A50,50,0,0,1,50,100Z" fill="#DDDFFF"></path></svg></g><g transform="translate(149.95,
                                74.98) rotate(90, 37.488, 37.488)"><svg id="Layer_1" data-name="Layer 1" xmlns="http://www.w3.org/2000/svg" viewBox="0 0 100 100" width="74.976" height="74.976"><path d="M50,100h0A50,50,0,0,1,0,50V0H100V50A50,50,0,0,1,50,100Z" fill="#DDDFFF"></path></svg></g><g transform="translate(224.93,
                                74.98) rotate(90, 37.488, 37.488)"><svg id="Layer_1" data-name="Layer 1" xmlns="http://www.w3.org/2000/svg" viewBox="0 0 100 100" width="74.976" height="74.976"><path d="M50,100a50,50,0,1,1,50-50v50Z" fill="#FDDEB3"></path></svg></g><g transform="translate(299.90,
                                0.00) rotate(180, 37.488, 37.488)"><svg id="Layer_1" data-name="Layer 1" xmlns="http://www.w3.org/2000/svg" viewBox="0 0 100 100" width="74.976" height="74.976"><path d="M50,100a50,50,0,1,1,50-50v50Z" fill="#DDDFFF"></path></svg></g><g transform="translate(299.90,
                                74.98) rotate(90, 37.488, 37.488)"><svg id="Layer_1" data-name="Layer 1" xmlns="http://www.w3.org/2000/svg" viewBox="0 0 100 100" width="74.976" height="74.976"><circle cx="50" cy="50" r="50" fill="#DDDFFF"></circle></svg></g><g transform="translate(449.86,
                                0.00) rotate(90, 37.488, 37.488)"><svg id="Layer_1" data-name="Layer 1" xmlns="http://www.w3.org/2000/svg" viewBox="0 0 100 100" width="74.976" height="74.976"><path d="M50,100a50,50,0,1,1,50-50v50Z" fill="#FDDEB3"></path></svg></g><g transform="translate(524.83,
                                0.00) rotate(180, 37.488, 37.488)"><svg id="Layer_1" data-name="Layer 1" xmlns="http://www.w3.org/2000/svg" viewBox="0 0 100 100" width="74.976" height="74.976"><path d="M50,100a50,50,0,1,1,50-50v50Z" fill="#FDDEB3"></path></svg></g><g transform="translate(449.86,
                                74.98) rotate(90, 37.488, 37.488)"><svg id="Layer_1" data-name="Layer 1" xmlns="http://www.w3.org/2000/svg" viewBox="0 0 100 100" width="74.976" height="74.976"><path d="M50,100h0A50,50,0,0,1,0,50V0H100V50A50,50,0,0,1,50,100Z" fill="#DDDFFF"></path></svg></g><g transform="translate(524.83,
                                74.98) rotate(270, 37.488, 37.488)"><svg id="Layer_1" data-name="Layer 1" xmlns="http://www.w3.org/2000/svg" viewBox="0 0 100 100" width="74.976" height="74.976"><path d="M50,100a50,50,0,1,1,50-50v50Z" fill="#FDDEB3"></path></svg></g><g transform="translate(674.78,
                                0.00) rotate(180, 37.488, 37.488)"><svg id="Layer_1" data-name="Layer 1" xmlns="http://www.w3.org/2000/svg" viewBox="0 0 100 100" width="74.976" height="74.976"><path d="M50,100h0A50,50,0,0,1,0,50V0H100V50A50,50,0,0,1,50,100Z" fill="#DDDFFF"></path></svg></g><g transform="translate(599.81,
                                74.98) rotate(180, 37.488, 37.488)"><svg id="Layer_1" data-name="Layer 1" xmlns="http://www.w3.org/2000/svg" viewBox="0 0 100 100" width="74.976" height="74.976"><path d="M50,100h0A50,50,0,0,1,0,50V0H100V50A50,50,0,0,1,50,100Z" fill="#DDDFFF"></path></svg></g><g transform="translate(674.78,
                                74.98) rotate(90, 37.488, 37.488)"><svg id="Layer_1" data-name="Layer 1" xmlns="http://www.w3.org/2000/svg" viewBox="0 0 100 100" width="74.976" height="74.976"><path d="M50,100a50,50,0,1,1,50-50v50Z" fill="#FDDEB3"></path></svg></g></g><g><g transform="translate(0.00,
                                149.95) rotate(0, 37.488, 37.488)"><svg id="Layer_1" data-name="Layer 1" xmlns="http://www.w3.org/2000/svg" viewBox="0 0 100 100" width="74.976" height="74.976"><path d="M50,100a50,50,0,1,1,50-50v50Z" fill="#DDDFFF"></path></svg></g><g transform="translate(74.98,
                                149.95) rotate(90, 37.488, 37.488)"><svg id="Layer_1" data-name="Layer 1" xmlns="http://www.w3.org/2000/svg" viewBox="0 0 100 100" width="74.976" height="74.976"><path d="M50,100a50,50,0,1,1,50-50v50Z" fill="#FDDEB3"></path></svg></g><g transform="translate(0.00,
                                224.93) rotate(0, 37.488, 37.488)"><svg id="Layer_1" data-name="Layer 1" xmlns="http://www.w3.org/2000/svg" viewBox="0 0 100 100" width="74.976" height="74.976"><path d="M50,100h0A50,50,0,0,1,0,50V0H100V50A50,50,0,0,1,50,100Z" fill="#DDDFFF"></path></svg></g><g transform="translate(74.98,
                                224.93) rotate(270, 37.488, 37.488)"><svg id="Layer_1" data-name="Layer 1" xmlns="http://www.w3.org/2000/svg" viewBox="0 0 100 100" width="74.976" height="74.976"><path d="M50,100h0A50,50,0,0,1,0,50V0H100V50A50,50,0,0,1,50,100Z" fill="#DDDFFF"></path></svg></g><g transform="translate(149.95,
                                149.95) rotate(0, 37.488, 37.488)"><svg id="Layer_1" data-name="Layer 1" xmlns="http://www.w3.org/2000/svg" viewBox="0 0 100 100" width="74.976" height="74.976"><path d="M50,100a50,50,0,1,1,50-50v50Z" fill="#DDDFFF"></path></svg></g><g transform="translate(374.88,
                                149.95) rotate(90, 37.488, 37.488)"><svg id="Layer_1" data-name="Layer 1" xmlns="http://www.w3.org/2000/svg" viewBox="0 0 100 100" width="74.976" height="74.976"><path d="M50,100h0A50,50,0,0,1,0,50V0H100V50A50,50,0,0,1,50,100Z" fill="#DDDFFF"></path></svg></g><g transform="translate(299.90,
                                224.93) rotate(270, 37.488, 37.488)"><svg id="Layer_1" data-name="Layer 1" xmlns="http://www.w3.org/2000/svg" viewBox="0 0 100 100" width="74.976" height="74.976"><path d="M50,100h0A50,50,0,0,1,0,50V0H100V50A50,50,0,0,1,50,100Z" fill="#DDDFFF"></path></svg></g><g transform="translate(374.88,
                                224.93) rotate(0, 37.488, 37.488)"><svg id="Layer_1" data-name="Layer 1" xmlns="http://www.w3.org/2000/svg" viewBox="0 0 100 100" width="74.976" height="74.976"><path d="M50,100a50,50,0,1,1,50-50v50Z" fill="#FDDEB3"></path></svg></g><g transform="translate(449.86,
                                149.95) rotate(270, 37.488, 37.488)"><svg id="Layer_1" data-name="Layer 1" xmlns="http://www.w3.org/2000/svg" viewBox="0 0 100 100" width="74.976" height="74.976"><path d="M50,100a50,50,0,1,1,50-50v50Z" fill="#DDDFFF"></path></svg></g><g transform="translate(524.83,
                                149.95) rotate(0, 37.488, 37.488)"><svg id="Layer_1" data-name="Layer 1" xmlns="http://www.w3.org/2000/svg" viewBox="0 0 100 100" width="74.976" height="74.976"><path d="M50,100h0A50,50,0,0,1,0,50V0H100V50A50,50,0,0,1,50,100Z" fill="#DDDFFF"></path></svg></g><g transform="translate(449.86,
                                224.93) rotate(90, 37.488, 37.488)"><svg id="Layer_1" data-name="Layer 1" xmlns="http://www.w3.org/2000/svg" viewBox="0 0 100 100" width="74.976" height="74.976"><path d="M50,100h0A50,50,0,0,1,0,50V0H100V50A50,50,0,0,1,50,100Z" fill="#DDDFFF"></path></svg></g><g transform="translate(524.83,
                                224.93) rotate(0, 37.488, 37.488)"><svg id="Layer_1" data-name="Layer 1" xmlns="http://www.w3.org/2000/svg" viewBox="0 0 100 100" width="74.976" height="74.976"><path d="M50,100a50,50,0,1,1,50-50v50Z" fill="#FDDEB3"></path></svg></g><g transform="translate(599.81,
                                224.93) rotate(180, 37.488, 37.488)"><svg id="Layer_1" data-name="Layer 1" xmlns="http://www.w3.org/2000/svg" viewBox="0 0 100 100" width="74.976" height="74.976"><circle cx="50" cy="50" r="50" fill="#DDDFFF"></circle></svg></g><g transform="translate(674.78,
                                224.93) rotate(0, 37.488, 37.488)"><svg id="Layer_1" data-name="Layer 1" xmlns="http://www.w3.org/2000/svg" viewBox="0 0 100 100" width="74.976" height="74.976"><circle cx="50" cy="50" r="50" fill="#DDDFFF"></circle></svg></g></g><g><g transform="translate(0.00,
                                299.90) rotate(180, 37.488, 37.488)"><svg id="Layer_1" data-name="Layer 1" xmlns="http://www.w3.org/2000/svg" viewBox="0 0 100 100" width="74.976" height="74.976"><path d="M50,100a50,50,0,1,1,50-50v50Z" fill="#DDDFFF"></path></svg></g><g transform="translate(74.98,
                                299.90) rotate(90, 37.488, 37.488)"><svg id="Layer_1" data-name="Layer 1" xmlns="http://www.w3.org/2000/svg" viewBox="0 0 100 100" width="74.976" height="74.976"><path d="M50,100a50,50,0,1,1,50-50v50Z" fill="#FDDEB3"></path></svg></g><g transform="translate(74.98,
                                374.88) rotate(180, 37.488, 37.488)"><svg id="Layer_1" data-name="Layer 1" xmlns="http://www.w3.org/2000/svg" viewBox="0 0 100 100" width="74.976" height="74.976"><path d="M50,100a50,50,0,1,1,50-50v50Z" fill="#FDDEB3"></path></svg></g><g transform="translate(149.95,
                                299.90) rotate(180, 37.488, 37.488)"><svg id="Layer_1" data-name="Layer 1" xmlns="http://www.w3.org/2000/svg" viewBox="0 0 100 100" width="74.976" height="74.976"><path d="M50,100a50,50,0,1,1,50-50v50Z" fill="#FDDEB3"></path></svg></g><g transform="translate(299.90,
                                299.90) rotate(270, 37.488, 37.488)"><svg id="Layer_1" data-name="Layer 1" xmlns="http://www.w3.org/2000/svg" viewBox="0 0 100 100" width="74.976" height="74.976"><path d="M50,100a50,50,0,1,1,50-50v50Z" fill="#DDDFFF"></path></svg></g><g transform="translate(374.88,
                                299.90) rotate(0, 37.488, 37.488)"><svg id="Layer_1" data-name="Layer 1" xmlns="http://www.w3.org/2000/svg" viewBox="0 0 100 100" width="74.976" height="74.976"><path d="M50,100h0A50,50,0,0,1,0,50V0H100V50A50,50,0,0,1,50,100Z" fill="#DDDFFF"></path></svg></g><g transform="translate(299.90,
                                374.88) rotate(270, 37.488, 37.488)"><svg id="Layer_1" data-name="Layer 1" xmlns="http://www.w3.org/2000/svg" viewBox="0 0 100 100" width="74.976" height="74.976"><path d="M50,100h0A50,50,0,0,1,0,50V0H100V50A50,50,0,0,1,50,100Z" fill="#DDDFFF"></path></svg></g><g transform="translate(374.88,
                                374.88) rotate(90, 37.488, 37.488)"><svg id="Layer_1" data-name="Layer 1" xmlns="http://www.w3.org/2000/svg" viewBox="0 0 100 100" width="74.976" height="74.976"><path d="M50,100a50,50,0,1,1,50-50v50Z" fill="#FDDEB3"></path></svg></g><g transform="translate(449.86,
                                299.90) rotate(0, 37.488, 37.488)"><svg id="Layer_1" data-name="Layer 1" xmlns="http://www.w3.org/2000/svg" viewBox="0 0 100 100" width="74.976" height="74.976"><path d="M50,100a50,50,0,1,1,50-50v50Z" fill="#FDDEB3"></path></svg></g><g transform="translate(524.83,
                                299.90) rotate(90, 37.488, 37.488)"><svg id="Layer_1" data-name="Layer 1" xmlns="http://www.w3.org/2000/svg" viewBox="0 0 100 100" width="74.976" height="74.976"><circle cx="50" cy="50" r="50" fill="#DDDFFF"></circle></svg></g><g transform="translate(449.86,
                                374.88) rotate(0, 37.488, 37.488)"><svg id="Layer_1" data-name="Layer 1" xmlns="http://www.w3.org/2000/svg" viewBox="0 0 100 100" width="74.976" height="74.976"><path d="M50,100h0A50,50,0,0,1,0,50V0H100V50A50,50,0,0,1,50,100Z" fill="#DDDFFF"></path></svg></g><g transform="translate(524.83,
                                374.88) rotate(90, 37.488, 37.488)"><svg id="Layer_1" data-name="Layer 1" xmlns="http://www.w3.org/2000/svg" viewBox="0 0 100 100" width="74.976" height="74.976"><path d="M50,100a50,50,0,1,1,50-50v50Z" fill="#FDDEB3"></path></svg></g><g transform="translate(599.81,
                                299.90) rotate(0, 37.488, 37.488)"><svg id="Layer_1" data-name="Layer 1" xmlns="http://www.w3.org/2000/svg" viewBox="0 0 100 100" width="74.976" height="74.976"><path d="M50,100a50,50,0,1,1,50-50v50Z" fill="#FDDEB3"></path></svg></g><g transform="translate(674.78,
                                299.90) rotate(90, 37.488, 37.488)"><svg id="Layer_1" data-name="Layer 1" xmlns="http://www.w3.org/2000/svg" viewBox="0 0 100 100" width="74.976" height="74.976"><path d="M50,100a50,50,0,1,1,50-50v50Z" fill="#FDDEB3"></path></svg></g><g transform="translate(674.78,
                                374.88) rotate(270, 37.488, 37.488)"><svg id="Layer_1" data-name="Layer 1" xmlns="http://www.w3.org/2000/svg" viewBox="0 0 100 100" width="74.976" height="74.976"><path d="M50,100a50,50,0,1,1,50-50v50Z" fill="#FDDEB3"></path></svg></g></g><g><g transform="translate(74.98,
                                449.86) rotate(90, 37.488, 37.488)"><svg id="Layer_1" data-name="Layer 1" xmlns="http://www.w3.org/2000/svg" viewBox="0 0 100 100" width="74.976" height="74.976"><path d="M50,100h0A50,50,0,0,1,0,50V0H100V50A50,50,0,0,1,50,100Z" fill="#DDDFFF"></path></svg></g><g transform="translate(74.98,
                                524.83) rotate(180, 37.488, 37.488)"><svg id="Layer_1" data-name="Layer 1" xmlns="http://www.w3.org/2000/svg" viewBox="0 0 100 100" width="74.976" height="74.976"><path d="M50,100a50,50,0,1,1,50-50v50Z" fill="#FDDEB3"></path></svg></g><g transform="translate(149.95,
                                449.86) rotate(90, 37.488, 37.488)"><svg id="Layer_1" data-name="Layer 1" xmlns="http://www.w3.org/2000/svg" viewBox="0 0 100 100" width="74.976" height="74.976"><path d="M50,100a50,50,0,1,1,50-50v50Z" fill="#DDDFFF"></path></svg></g><g transform="translate(224.93,
                                449.86) rotate(180, 37.488, 37.488)"><svg id="Layer_1" data-name="Layer 1" xmlns="http://www.w3.org/2000/svg" viewBox="0 0 100 100" width="74.976" height="74.976"><path d="M50,100a50,50,0,1,1,50-50v50Z" fill="#FDDEB3"></path></svg></g><g transform="translate(224.93,
                                524.83) rotate(270, 37.488, 37.488)"><svg id="Layer_1" data-name="Layer 1" xmlns="http://www.w3.org/2000/svg" viewBox="0 0 100 100" width="74.976" height="74.976"><path d="M50,100a50,50,0,1,1,50-50v50Z" fill="#DDDFFF"></path></svg></g><g transform="translate(299.90,
                                449.86) rotate(90, 37.488, 37.488)"><svg id="Layer_1" data-name="Layer 1" xmlns="http://www.w3.org/2000/svg" viewBox="0 0 100 100" width="74.976" height="74.976"><path d="M50,100a50,50,0,1,1,50-50v50Z" fill="#DDDFFF"></path></svg></g><g transform="translate(299.90,
                                524.83) rotate(270, 37.488, 37.488)"><svg id="Layer_1" data-name="Layer 1" xmlns="http://www.w3.org/2000/svg" viewBox="0 0 100 100" width="74.976" height="74.976"><path d="M50,100h0A50,50,0,0,1,0,50V0H100V50A50,50,0,0,1,50,100Z" fill="#DDDFFF"></path></svg></g><g transform="translate(449.86,
                                449.86) rotate(180, 37.488, 37.488)"><svg id="Layer_1" data-name="Layer 1" xmlns="http://www.w3.org/2000/svg" viewBox="0 0 100 100" width="74.976" height="74.976"><path d="M50,100a50,50,0,1,1,50-50v50Z" fill="#DDDFFF"></path></svg></g><g transform="translate(524.83,
                                449.86) rotate(90, 37.488, 37.488)"><svg id="Layer_1" data-name="Layer 1" xmlns="http://www.w3.org/2000/svg" viewBox="0 0 100 100" width="74.976" height="74.976"><circle cx="50" cy="50" r="50" fill="#DDDFFF"></circle></svg></g><g transform="translate(449.86,
                                524.83) rotate(0, 37.488, 37.488)"><svg id="Layer_1" data-name="Layer 1" xmlns="http://www.w3.org/2000/svg" viewBox="0 0 100 100" width="74.976" height="74.976"><circle cx="50" cy="50" r="50" fill="#DDDFFF"></circle></svg></g><g transform="translate(524.83,
                                524.83) rotate(180, 37.488, 37.488)"><svg id="Layer_1" data-name="Layer 1" xmlns="http://www.w3.org/2000/svg" viewBox="0 0 100 100" width="74.976" height="74.976"><path d="M50,100h0A50,50,0,0,1,0,50V0H100V50A50,50,0,0,1,50,100Z" fill="#DDDFFF"></path></svg></g><g transform="translate(599.81,
                                449.86) rotate(270, 37.488, 37.488)"><svg id="Layer_1" data-name="Layer 1" xmlns="http://www.w3.org/2000/svg" viewBox="0 0 100 100" width="74.976" height="74.976"><path d="M50,100a50,50,0,1,1,50-50v50Z" fill="#FDDEB3"></path></svg></g><g transform="translate(599.81,
                                524.83) rotate(180, 37.488, 37.488)"><svg id="Layer_1" data-name="Layer 1" xmlns="http://www.w3.org/2000/svg" viewBox="0 0 100 100" width="74.976" height="74.976"><path d="M50,100h0A50,50,0,0,1,0,50V0H100V50A50,50,0,0,1,50,100Z" fill="#DDDFFF"></path></svg></g></g><g><g transform="translate(0.00,
                                599.81) rotate(90, 37.488, 37.488)"><svg id="Layer_1" data-name="Layer 1" xmlns="http://www.w3.org/2000/svg" viewBox="0 0 100 100" width="74.976" height="74.976"><path d="M50,100a50,50,0,1,1,50-50v50Z" fill="#FDDEB3"></path></svg></g><g transform="translate(74.98,
                                599.81) rotate(90, 37.488, 37.488)"><svg id="Layer_1" data-name="Layer 1" xmlns="http://www.w3.org/2000/svg" viewBox="0 0 100 100" width="74.976" height="74.976"><path d="M50,100a50,50,0,1,1,50-50v50Z" fill="#FDDEB3"></path></svg></g><g transform="translate(0.00,
                                674.78) rotate(270, 37.488, 37.488)"><svg id="Layer_1" data-name="Layer 1" xmlns="http://www.w3.org/2000/svg" viewBox="0 0 100 100" width="74.976" height="74.976"><path d="M50,100h0A50,50,0,0,1,0,50V0H100V50A50,50,0,0,1,50,100Z" fill="#DDDFFF"></path></svg></g><g transform="translate(74.98,
                                674.78) rotate(0, 37.488, 37.488)"><svg id="Layer_1" data-name="Layer 1" xmlns="http://www.w3.org/2000/svg" viewBox="0 0 100 100" width="74.976" height="74.976"><path d="M50,100a50,50,0,1,1,50-50v50Z" fill="#DDDFFF"></path></svg></g><g transform="translate(149.95,
                                599.81) rotate(0, 37.488, 37.488)"><svg id="Layer_1" data-name="Layer 1" xmlns="http://www.w3.org/2000/svg" viewBox="0 0 100 100" width="74.976" height="74.976"><path d="M50,100a50,50,0,1,1,50-50v50Z" fill="#FDDEB3"></path></svg></g><g transform="translate(224.93,
                                599.81) rotate(180, 37.488, 37.488)"><svg id="Layer_1" data-name="Layer 1" xmlns="http://www.w3.org/2000/svg" viewBox="0 0 100 100" width="74.976" height="74.976"><path d="M50,100h0A50,50,0,0,1,0,50V0H100V50A50,50,0,0,1,50,100Z" fill="#DDDFFF"></path></svg></g><g transform="translate(224.93,
                                674.78) rotate(180, 37.488, 37.488)"><svg id="Layer_1" data-name="Layer 1" xmlns="http://www.w3.org/2000/svg" viewBox="0 0 100 100" width="74.976" height="74.976"><path d="M50,100a50,50,0,1,1,50-50v50Z" fill="#FDDEB3"></path></svg></g><g transform="translate(299.90,
                                599.81) rotate(0, 37.488, 37.488)"><svg id="Layer_1" data-name="Layer 1" xmlns="http://www.w3.org/2000/svg" viewBox="0 0 100 100" width="74.976" height="74.976"><path d="M50,100a50,50,0,1,1,50-50v50Z" fill="#DDDFFF"></path></svg></g><g transform="translate(299.90,
                                674.78) rotate(90, 37.488, 37.488)"><svg id="Layer_1" data-name="Layer 1" xmlns="http://www.w3.org/2000/svg" viewBox="0 0 100 100" width="74.976" height="74.976"><circle cx="50" cy="50" r="50" fill="#DDDFFF"></circle></svg></g><g transform="translate(374.88,
                                674.78) rotate(180, 37.488, 37.488)"><svg id="Layer_1" data-name="Layer 1" xmlns="http://www.w3.org/2000/svg" viewBox="0 0 100 100" width="74.976" height="74.976"><path d="M50,100a50,50,0,1,1,50-50v50Z" fill="#FDDEB3"></path></svg></g><g transform="translate(449.86,
                                599.81) rotate(0, 37.488, 37.488)"><svg id="Layer_1" data-name="Layer 1" xmlns="http://www.w3.org/2000/svg" viewBox="0 0 100 100" width="74.976" height="74.976"><path d="M50,100a50,50,0,1,1,50-50v50Z" fill="#DDDFFF"></path></svg></g><g transform="translate(449.86,
                                674.78) rotate(180, 37.488, 37.488)"><svg id="Layer_1" data-name="Layer 1" xmlns="http://www.w3.org/2000/svg" viewBox="0 0 100 100" width="74.976" height="74.976"><path d="M50,100h0A50,50,0,0,1,0,50V0H100V50A50,50,0,0,1,50,100Z" fill="#DDDFFF"></path></svg></g><g transform="translate(524.83,
                                674.78) rotate(270, 37.488, 37.488)"><svg id="Layer_1" data-name="Layer 1" xmlns="http://www.w3.org/2000/svg" viewBox="0 0 100 100" width="74.976" height="74.976"><path d="M50,100a50,50,0,1,1,50-50v50Z" fill="#FDDEB3"></path></svg></g><g transform="translate(599.81,
                                599.81) rotate(270, 37.488, 37.488)"><svg id="Layer_1" data-name="Layer 1" xmlns="http://www.w3.org/2000/svg" viewBox="0 0 100 100" width="74.976" height="74.976"><path d="M50,100a50,50,0,1,1,50-50v50Z" fill="#DDDFFF"></path></svg></g><g transform="translate(674.78,
                                599.81) rotate(270, 37.488, 37.488)"><svg id="Layer_1" data-name="Layer 1" xmlns="http://www.w3.org/2000/svg" viewBox="0 0 100 100" width="74.976" height="74.976"><path d="M50,100a50,50,0,1,1,50-50v50Z" fill="#FDDEB3"></path></svg></g><g transform="translate(674.78,
                                674.78) rotate(180, 37.488, 37.488)"><svg id="Layer_1" data-name="Layer 1" xmlns="http://www.w3.org/2000/svg" viewBox="0 0 100 100" width="74.976" height="74.976"><circle cx="50" cy="50" r="50" fill="#DDDFFF"></circle></svg></g></g></svg>